<svg width="90" height="24" viewBox="0 0 90 24" fill="none" xmlns="http://www.w3.org/2000/svg">
<g id="logo" clip-path="url(#clip0_127_2558)">
<path id="Vector" d="M44.5559 0H41.2344V3.19982H44.5559V0Z" fill="black"/>
<path id="Vector_2" d="M44.4202 6.46875H41.375V23.4898H44.4202V6.46875Z" fill="black"/>
<path id="Vector_3" d="M47.1719 6.4668H50.3908L54.8543 18.2454L59.2487 6.4668H60.9789L65.5805 18.1095L69.8368 6.4668H72.9853L66.3765 23.4885H64.7852L60.1473 11.5054L55.5799 23.4885H53.9885L47.1719 6.4668Z" fill="black"/>
<path id="Vector_4" d="M77.4553 23.7105C76.7108 23.5415 76.0098 23.2228 75.3966 22.7743C74.8108 22.3322 74.3468 21.7529 74.0467 21.0893C73.7239 20.397 73.5625 19.5628 73.5625 18.5868C73.5668 17.9687 73.6661 17.3548 73.8569 16.7659C74.0527 16.1417 74.416 15.5744 74.9466 15.0637C75.4773 14.5531 76.2096 14.1389 77.1435 13.8214C78.0783 13.5034 79.2836 13.3444 80.7594 13.3444C81.4515 13.3444 82.0686 13.3501 82.6109 13.3615C83.1532 13.373 83.6548 13.3899 84.1157 13.4123L85.4831 13.4783C85.9324 13.5007 86.4224 13.5227 86.9531 13.5443V12.1192C86.9531 10.8252 86.5784 9.90022 85.8291 9.34426C85.0799 8.78831 83.8399 8.51033 82.1093 8.51033C81.4377 8.50398 80.7666 8.54965 80.1022 8.6469C79.5255 8.73751 79.0353 8.91344 78.6316 9.17471C78.2209 9.44297 77.8824 9.80519 77.6451 10.2303C77.3916 10.6728 77.2072 11.2345 77.0919 11.9153H74.1506C74.3125 10.7806 74.595 9.83315 74.9983 9.0731C75.3709 8.34783 75.9172 7.72264 76.5903 7.25151C77.2475 6.7976 78.0374 6.46772 78.9602 6.26188C79.8829 6.05603 80.9335 5.95377 82.112 5.95509C84.5798 5.95509 86.5116 6.43188 87.9073 7.38544C89.3031 8.33901 89.9992 9.91694 89.9956 12.1192V23.4895H86.9504V20.6637H86.6044C86.0737 21.8209 85.2144 22.6663 84.0266 23.1998C82.8387 23.7334 81.5201 24.0008 80.0707 24.0021C79.1901 24.009 78.312 23.9111 77.4553 23.7105ZM83.13 21.2971C83.7752 21.2059 84.4006 21.0102 84.9808 20.7178C85.5298 20.4383 85.9995 20.0289 86.3475 19.5263C86.7052 19.0157 86.9063 18.3519 86.951 17.5352V15.7617C85.9827 15.7177 85.0774 15.6837 84.2351 15.6595C83.3928 15.6353 82.6259 15.6238 81.9343 15.6252C80.7572 15.6252 79.817 15.7048 79.1137 15.864C78.4105 16.0232 77.874 16.2387 77.5043 16.5106C77.1355 16.7828 76.8932 17.0949 76.7774 17.4467C76.6611 17.8043 76.6027 18.1777 76.6044 18.5532C76.6044 19.6646 76.9678 20.4249 77.6947 20.8339C78.4217 21.243 79.5463 21.4473 81.0685 21.4469C81.7585 21.4481 82.4476 21.398 83.13 21.2971Z" fill="black"/>
<path id="Vector_5" d="M17.659 17.3202V6.44477H15.1007L14.9317 9.03498C14.3792 8.35754 13.7137 7.77747 12.9635 7.31961C12.616 7.10481 12.2532 6.91518 11.8778 6.75222C10.8853 6.31931 9.81155 6.09633 8.72595 6.09774C7.18346 6.09087 5.66949 6.50665 4.35363 7.2985C3.01918 8.0997 1.91647 9.22492 1.15135 10.5662C0.386224 11.9074 -0.015625 13.4196 -0.015625 14.9576C-0.015625 16.4957 0.386224 18.0079 1.15135 19.3491C1.91647 20.6903 3.01918 21.8156 4.35363 22.6168C5.66944 23.4087 7.18348 23.8242 8.72595 23.8169C9.81987 23.8198 10.9024 23.5985 11.9046 23.167C12.3784 22.9625 12.8323 22.7158 13.2605 22.43C14.2443 21.7762 15.0189 20.9786 15.5748 20.0549L16.8067 23.4744H19.8874L17.659 17.3202ZM13.9707 17.9668C13.4548 18.8175 12.7467 19.54 11.9012 20.078C11.8342 20.1209 11.7671 20.1651 11.7001 20.2053C10.8052 20.7425 9.77754 21.0273 8.7293 21.0287C7.70609 21.0333 6.70293 20.7496 5.83834 20.2113C4.9406 19.6492 4.2015 18.8735 3.68944 17.9558C3.17739 17.0381 2.90894 16.0081 2.90894 14.9613C2.90894 13.9144 3.17739 12.8844 3.68944 11.9667C4.2015 11.049 4.9406 10.2733 5.83834 9.71123C6.70169 9.17395 7.70303 8.89035 8.7246 8.89379C9.77277 8.89511 10.8004 9.1797 11.6954 9.71651C11.7591 9.75412 11.8201 9.79502 11.8825 9.83395C12.7343 10.3726 13.448 11.0976 13.968 11.9524C14.526 12.8598 14.821 13.9001 14.821 14.9606C14.821 16.0211 14.526 17.0614 13.968 17.9688L13.9707 17.9668Z" fill="black"/>
<path id="Vector_6" d="M22.5156 23.4893V0.00195312H25.5608V23.4893H22.5156ZM38.7442 23.4893H34.73L26.564 14.5358L34.3839 6.46758H38.5014L30.2664 14.3998L38.7442 23.4893Z" fill="black"/>
</g>
<defs>
<clipPath id="clip0_127_2558">
<rect width="90" height="24" fill="white"/>
</clipPath>
</defs>
</svg>
