<svg width="360" height="98" viewBox="0 0 360 98" fill="none" xmlns="http://www.w3.org/2000/svg">
<g clip-path="url(#clip0_301_816)">
<path d="M178.247 0H164.961V13.0659H178.247V0Z" fill="black"/>
<path d="M177.696 26.4121H165.516V95.9149H177.696V26.4121Z" fill="black"/>
<path d="M188.703 26.4092H201.579L219.433 74.5053L237.011 26.4092H243.931L262.338 73.9504L279.363 26.4092H291.957L265.522 95.9146H259.156L240.605 46.9833L222.335 95.9146H215.97L188.703 26.4092Z" fill="black"/>
<path d="M309.829 96.8177C306.851 96.1277 304.047 94.8261 301.594 92.9949C299.251 91.1896 297.395 88.8243 296.195 86.1144C294.903 83.2874 294.258 79.8813 294.258 75.896C294.275 73.3721 294.672 70.8653 295.435 68.4605C296.219 65.912 297.672 63.5951 299.794 61.51C301.917 59.4248 304.846 57.7339 308.582 56.4371C312.321 55.1386 317.142 54.4894 323.045 54.4894C325.814 54.4894 328.282 54.5127 330.451 54.5594C332.621 54.6061 334.627 54.6753 336.471 54.7668L341.94 55.0363C343.737 55.1278 345.697 55.2176 347.82 55.3057V49.4866C347.82 44.2027 346.321 40.4257 343.324 38.1556C340.327 35.8854 335.367 34.7504 328.445 34.7504C325.758 34.7244 323.074 34.9109 320.417 35.308C318.11 35.678 316.149 36.3964 314.534 37.4632C312.891 38.5586 311.537 40.0377 310.588 41.7736C309.574 43.5804 308.837 45.8739 308.375 48.6541H296.61C297.258 44.0204 298.388 40.1518 300.001 37.0483C301.491 34.0868 303.677 31.534 306.369 29.6102C308.998 27.7567 312.157 26.4097 315.848 25.5692C319.539 24.7286 323.742 24.3111 328.456 24.3165C338.327 24.3165 346.054 26.2633 351.637 30.1571C357.22 34.0508 360.004 40.494 359.99 49.4866V95.9152H347.809V84.3767H346.425C344.303 89.102 340.865 92.5539 336.114 94.7325C331.363 96.911 326.088 98.003 320.291 98.0084C316.768 98.0366 313.256 97.6368 309.829 96.8177ZM332.528 86.963C335.109 86.5906 337.61 85.7913 339.931 84.5976C342.127 83.4564 344.006 81.7844 345.398 79.7322C346.828 77.6471 347.633 74.9369 347.812 71.6017V64.3602C343.939 64.1806 340.317 64.0414 336.948 63.9426C333.579 63.8439 330.511 63.7972 327.745 63.8026C323.036 63.8026 319.276 64.1276 316.463 64.7778C313.65 65.4279 311.504 66.308 310.025 67.4179C308.55 68.5297 307.58 69.8039 307.117 71.2407C306.652 72.7009 306.419 74.2255 306.425 75.7586C306.425 80.2971 307.879 83.4015 310.787 85.0718C313.695 86.7421 318.193 87.5763 324.282 87.5745C327.042 87.5794 329.798 87.375 332.528 86.963Z" fill="black"/>
<path d="M70.6361 70.7229V26.3149H60.4027L59.7267 36.8915C57.5169 34.1253 54.8546 31.7567 51.8539 29.8871C50.4642 29.01 49.0128 28.2357 47.5111 27.5703C43.5414 25.8025 39.2462 24.8921 34.9038 24.8978C28.7338 24.8698 22.678 26.5675 17.4145 29.8009C12.0767 33.0725 7.66589 37.6671 4.60539 43.1438C1.54489 48.6205 -0.0625 54.7954 -0.0625 61.0757C-0.0625 67.356 1.54489 73.5308 4.60539 79.0075C7.66589 84.4842 12.0767 89.0789 17.4145 92.3504C22.6777 95.5841 28.7339 97.281 34.9038 97.2508C39.2795 97.2628 43.6097 96.359 47.6184 94.5972C49.5138 93.7621 51.3292 92.7548 53.0422 91.588C56.9773 88.9183 60.0755 85.6612 62.2992 81.8896L67.2268 95.8526H79.5497L70.6361 70.7229ZM55.8829 73.363C53.8194 76.837 50.9869 79.7869 47.605 81.9839C47.3367 82.159 47.0685 82.3395 46.8002 82.5038C43.2209 84.6972 39.1102 85.8603 34.9172 85.8659C30.8244 85.8846 26.8117 84.7264 23.3534 82.5281C19.7624 80.2331 16.806 77.0654 14.7578 73.3181C12.7096 69.5709 11.6357 65.3652 11.6357 61.0905C11.6357 56.8157 12.7096 52.6101 14.7578 48.8628C16.806 45.1156 19.7624 41.9478 23.3534 39.6529C26.8068 37.459 30.8121 36.301 34.8984 36.315C39.0911 36.3204 43.2017 37.4825 46.7815 39.6745C47.0363 39.828 47.2804 39.995 47.5299 40.154C50.937 42.3535 53.7921 45.314 55.8721 48.8044C58.1041 52.5095 59.2841 56.7574 59.2841 61.0878C59.2841 65.4182 58.1041 69.6661 55.8721 73.3711L55.8829 73.363Z" fill="black"/>
<path d="M90.0703 95.9146V0.0078125H102.251V95.9146H90.0703ZM154.984 95.9146H138.928L106.264 59.3542L137.543 26.4091H154.013L121.074 58.7992L154.984 95.9146Z" fill="black"/>
</g>
<defs>
<clipPath id="clip0_301_816">
<rect width="360" height="98" fill="white"/>
</clipPath>
</defs>
</svg>
