<svg width="56" height="38" viewBox="0 0 56 38" fill="none" xmlns="http://www.w3.org/2000/svg">
<g id="Vector">
<path d="M55.0443 18.7401C55.1749 19.9039 53.4436 21.6809 51.8931 21.6774C50.8012 21.6774 49.4184 21.1851 49.2304 19.2138C48.8892 15.6342 51.2969 13.1101 51.2574 12.7621C51.2179 12.4142 50.539 12.0732 50.1619 12.1128L50.0853 12.1907C49.865 11.4716 48.797 11.1271 48.1577 11.1737C47.2166 11.2412 46.0026 12.6178 45.4482 13.678C45.0452 13.7333 44.6488 13.828 44.2654 13.9608C44.5515 11.8824 43.6188 11.3761 42.679 11.4751C42.0863 11.5315 41.5171 11.7294 41.022 12.0511C41.0318 11.9911 41.0343 11.9301 41.0291 11.8696C40.9776 11.4041 39.3266 10.8048 39.3925 11.3971C39.5122 12.4444 36.7585 16.1113 35.6247 19.7572C35.4978 19.8375 35.4547 19.827 35.305 19.7875C34.7387 19.6374 34.2167 17.9872 33.6516 17.4251C34.5663 16.9736 37.6133 14.1807 37.6924 13.0147C37.7211 12.5922 36.1802 11.6182 35.9803 12.2152C35.6211 13.2893 33.6193 16.0973 32.3885 16.6373C32.9356 14.7951 33.8934 13.1578 33.8803 13.0414C33.8551 12.8087 32.9057 12.4526 32.234 12.5562C31.9634 12.598 31.081 14.5729 30.5578 16.0217C29.2049 18.1408 24.8864 22.9656 24.5128 23.004C24.2399 23.0319 24.0615 22.3779 24.0615 21.7739C24.0615 18.5458 27.4593 14.9918 28.7787 14.8533C29.1379 14.8161 29.8287 15.3991 29.7629 14.8114C29.6695 13.9712 28.6135 13.4685 27.9586 13.4953C25.3354 13.6035 23.0067 16.4977 22.2608 18.1792C21.303 19.7886 17.9949 23.6685 16.8731 25.0882C16.8581 25.1072 16.8371 25.1209 16.8133 25.1272C16.7896 25.1335 16.7643 25.1321 16.7415 25.1231C16.7187 25.1141 16.6995 25.0981 16.6869 25.0775C16.6744 25.0569 16.6691 25.0329 16.6719 25.0091C17.3005 20.0179 21.8944 15.171 21.898 14.6159C21.898 14.1237 20.9162 13.7687 20.0171 13.8642C18.9204 13.9805 11.4686 24.3795 9.06091 26.736C9.03668 26.7595 9.00592 26.7755 8.97241 26.7822C8.93891 26.7888 8.90413 26.7857 8.8724 26.7733C8.84067 26.7609 8.81337 26.7398 8.79389 26.7125C8.77441 26.6852 8.76359 26.6529 8.76279 26.6197C8.56285 20.3007 22.1147 8.16894 22.2021 7.16698C22.2596 6.499 20.6564 6.00326 19.8746 6.02537C13.9434 6.20691 0 17.2261 0 19.8829C0 21.163 2.32031 22.8364 2.30714 22.0125C2.25685 19.1032 15.4579 7.22051 19.6471 7.41369C18.1637 8.31673 5.02971 19.5815 4.46939 27.6682C4.30417 30.0538 6.40657 30.6461 7.8409 30.6461C8.81787 30.6461 9.90737 30.0422 14.2966 23.3147C14.1684 23.8384 14.0152 25.1708 14.0463 25.4583C14.1744 26.6045 15.8638 27.2667 16.909 27.1398C17.4358 27.0758 19.6627 23.7418 21.4071 21.554C21.3712 23.267 22.4775 24.696 24.896 24.447C26.0298 24.3306 28.8625 20.5451 29.685 19.0427C29.4779 19.8841 29.0625 20.9221 29.1307 21.5331C29.1606 21.8065 31.166 23.0215 31.0332 21.817C30.9565 21.1304 31.5121 19.6118 31.8629 18.2735C32.9823 18.6145 33.2002 21.9299 35.1087 21.7297L35.1685 21.7088C35.0224 22.5176 34.9291 23.1902 35.0153 23.9466C35.0596 24.3411 35.3146 24.4586 35.4283 24.7612C22.9612 26.2426 6.71307 33.6054 3.29009 34.3805C2.02098 34.6668 1.94915 34.05 1.73364 34.3293C1.14339 35.0834 3.12725 38.2475 5.0333 37.9845C10.5707 37.22 21.7507 28.5386 37.2781 25.9761L37.1584 25.3093C36.9572 17.396 42.0851 12.3385 42.6143 12.7621C42.8538 12.9588 42.8119 13.6628 42.6023 14.6986C40.5814 16.2707 38.7615 18.213 38.9962 20.3298C39.0345 20.6731 39.2656 21.8496 40.4329 21.6867C42.1306 21.4539 43.5973 17.7463 44.1073 15.0605C44.3672 14.8596 44.6614 14.7048 44.9765 14.6031C44.6868 15.4177 44.3779 16.1346 44.3779 17.2483C44.3779 17.6265 44.3959 19.7037 46.1415 19.7037C46.7401 19.7037 47.3028 19.2964 47.8344 18.7029C48.0571 20.587 48.9119 21.5668 50.0266 22.2639C47.3814 22.4942 44.7548 22.8946 42.1641 23.4625C41.2949 23.5533 41.2865 25.0917 41.6302 25.172C49.422 23.3031 53.2832 23.4788 54.1344 23.3554C54.5283 23.2973 54.3044 22.8446 53.9333 22.2813C55.5807 21.5389 55.8489 20.303 55.9686 19.8259C56.2081 18.81 54.9965 18.3061 55.0443 18.7401ZM40.2617 20.779C40.1635 20.7894 40.0917 20.5462 40.0677 20.3309C39.9719 19.4733 40.9525 17.744 42.2228 16.18C41.5883 18.3724 40.7095 20.7324 40.2617 20.779ZM46.1953 18.4329C46.0217 18.4574 45.9367 18.1734 45.9248 17.9907C45.7571 15.3875 47.9374 12.5736 48.5911 12.3793C49.0389 12.2454 49.2268 12.4956 49.2496 12.6958C49.2627 12.8226 49.513 12.7226 49.6638 12.8122C49.404 13.1531 48.9107 13.9282 48.8257 14.0923C48.0643 15.3642 46.6958 18.3608 46.1953 18.4329Z" fill="black"/>
<path d="M36.6655 0.0597979C37.0606 0.252975 37.8064 2.08234 37.7059 2.80384C37.1072 7.08515 26.2708 6.21702 24.4473 10.6298C23.9086 11.9367 23.1172 10.3494 23.359 9.72911C25.0436 5.42337 35.3832 4.22474 36.0429 0.457789C36.1195 0.0202313 36.3769 -0.0821755 36.6655 0.0597979Z" fill="black"/>
<path d="M41.824 6.0377C41.8533 6.01877 41.8857 6.00498 41.9198 5.99697C41.9531 5.98893 41.9873 5.98463 42.0216 5.98417C42.0864 5.98338 42.1506 5.99649 42.2096 6.02257C42.2654 6.04963 42.3135 6.08959 42.3496 6.13894L42.6657 5.86663C42.6319 5.82502 42.5915 5.78888 42.546 5.75957C42.4979 5.72871 42.4465 5.70296 42.3927 5.68277C42.337 5.66144 42.2793 5.64546 42.2203 5.63506C42.1624 5.62398 42.1034 5.61852 42.0443 5.61876C41.9388 5.61797 41.8337 5.63329 41.7331 5.66415C41.6406 5.69113 41.5542 5.73453 41.478 5.79216C41.4059 5.846 41.347 5.91477 41.3056 5.99348C41.2628 6.07566 41.241 6.16669 41.2422 6.25881C41.2404 6.3274 41.2535 6.39558 41.2805 6.45897C41.3041 6.5126 41.3382 6.56123 41.3811 6.6021C41.4251 6.64285 41.4751 6.67697 41.5295 6.70335C41.5895 6.73119 41.6511 6.75567 41.7139 6.77666C41.7935 6.80047 41.869 6.83577 41.9378 6.8814C41.9646 6.89883 41.9863 6.92262 42.001 6.95052C42.0157 6.97843 42.0228 7.00951 42.0216 7.04082C42.0229 7.07816 42.0138 7.11514 41.9953 7.14789C41.9779 7.17732 41.9537 7.20242 41.9246 7.2212C41.8934 7.24144 41.8584 7.25566 41.8216 7.26309C41.7823 7.27119 41.7421 7.2751 41.7019 7.27473C41.6208 7.27464 41.5408 7.2559 41.4685 7.22004C41.3984 7.1894 41.3384 7.1407 41.2949 7.07923L40.9501 7.35154C40.9908 7.40189 41.0392 7.44586 41.0937 7.48187C41.1501 7.52054 41.2112 7.5522 41.2757 7.57613C41.3421 7.60071 41.4106 7.61941 41.4804 7.63199C41.5507 7.64459 41.6221 7.65082 41.6936 7.65061C41.7908 7.65033 41.8877 7.63861 41.9821 7.6157C42.0762 7.59204 42.1653 7.55267 42.2455 7.49933C42.3243 7.44775 42.3898 7.37927 42.437 7.29917C42.4885 7.20844 42.5142 7.106 42.5113 7.00242C42.5124 6.93599 42.5002 6.86998 42.4754 6.80808C42.4504 6.75069 42.4142 6.69853 42.3688 6.65447C42.3176 6.60645 42.2601 6.56535 42.1976 6.53228C42.1235 6.4947 42.0467 6.46242 41.9677 6.43569C41.902 6.41552 41.8398 6.38569 41.7833 6.34725C41.7623 6.3326 41.7453 6.31316 41.7339 6.29064C41.7224 6.26812 41.7168 6.2432 41.7175 6.21808C41.7161 6.18063 41.7265 6.14366 41.7474 6.11218C41.7668 6.08199 41.793 6.05651 41.824 6.0377ZM42.7974 5.66531L42.7244 6.05516H43.2799L43.0093 7.59359H43.4739L43.754 6.05399H44.2976L44.367 5.66415L42.7974 5.66531ZM45.7679 5.66531L45.5523 6.8395C45.5437 6.88892 45.5309 6.93757 45.514 6.98497C45.4975 7.03272 45.4724 7.07725 45.4398 7.11647C45.4047 7.15615 45.3615 7.18826 45.3129 7.21073C45.2021 7.25555 45.0784 7.2601 44.9645 7.22353C44.9249 7.20955 44.8893 7.18684 44.8603 7.1572C44.8342 7.12943 44.8146 7.09647 44.8028 7.06061C44.7906 7.02298 44.7845 6.9837 44.7849 6.94424C44.7849 6.92794 44.7849 6.91049 44.7849 6.89071C44.786 6.87118 44.7884 6.85174 44.7921 6.83252L45.0052 5.6688H44.5419L44.3239 6.87907C44.3239 6.90583 44.3168 6.93376 44.3144 6.96286C44.312 6.99195 44.3144 7.01988 44.3144 7.04548C44.313 7.13173 44.3314 7.21719 44.3682 7.29568C44.4048 7.36979 44.4585 7.43471 44.5251 7.48536C44.5993 7.53845 44.6829 7.57789 44.7717 7.60174C44.877 7.63179 44.9864 7.6463 45.0962 7.64479C45.2182 7.64647 45.3397 7.62797 45.4554 7.5901C45.5548 7.55604 45.6466 7.50391 45.7259 7.43649C45.802 7.37123 45.8642 7.29217 45.9091 7.20375C45.9574 7.10483 45.9912 6.99986 46.0097 6.89187L46.2276 5.67113L45.7679 5.66531ZM47.9229 5.85267C47.8332 5.78685 47.7311 5.73863 47.6224 5.7107C47.5137 5.68073 47.4013 5.66546 47.2884 5.66531H46.5532L46.2037 7.59359H47.0142C47.1774 7.5941 47.3395 7.56693 47.4931 7.51329C47.6351 7.46434 47.7654 7.38794 47.8762 7.2887C47.9856 7.19138 48.0722 7.07231 48.1301 6.93958C48.1932 6.7922 48.2242 6.6337 48.2211 6.47409C48.2246 6.34543 48.1954 6.21791 48.136 6.10287C48.0832 6.00459 48.0088 5.91878 47.9181 5.85151L47.9229 5.85267ZM47.6954 6.78364C47.6654 6.86554 47.6178 6.94032 47.5559 7.0031C47.494 7.06587 47.4192 7.11521 47.3363 7.14789C47.2387 7.18666 47.134 7.20567 47.0286 7.20375H46.7292L46.9364 6.0505H47.1998C47.2813 6.04901 47.3625 6.06203 47.4392 6.08891C47.5028 6.11137 47.5607 6.14667 47.6092 6.19248C47.6539 6.23574 47.6878 6.28825 47.7086 6.34609C47.7303 6.40589 47.7412 6.46888 47.7409 6.53228C47.7396 6.61685 47.7238 6.70061 47.6942 6.78015L47.6954 6.78364ZM48.2809 7.59825H48.749L49.0986 5.6688H48.6305L48.2809 7.59825ZM51.0262 5.85267C50.9391 5.77569 50.8363 5.7174 50.7245 5.6816C50.5947 5.64033 50.4588 5.62027 50.3222 5.62225C50.1602 5.6204 49.9996 5.65131 49.8505 5.71303C49.7107 5.77167 49.5844 5.85717 49.4794 5.96439C49.375 6.07193 49.2937 6.1985 49.2399 6.33678C49.1817 6.48337 49.1525 6.63932 49.1537 6.79644C49.1522 6.91586 49.1746 7.03443 49.2196 7.14556C49.2617 7.2478 49.3267 7.33963 49.4099 7.41438C49.4978 7.49181 49.6014 7.55048 49.714 7.58661C49.8455 7.62795 49.983 7.64801 50.1211 7.64596C50.2831 7.64782 50.4438 7.6169 50.5928 7.55519C50.7317 7.49607 50.8571 7.41062 50.9616 7.30382C51.0656 7.19562 51.147 7.06873 51.201 6.93027C51.2583 6.78386 51.2871 6.62839 51.286 6.47177C51.2877 6.35234 51.2653 6.23375 51.2202 6.12265C51.1785 6.01843 51.114 5.92431 51.031 5.84685L51.0262 5.85267ZM50.7521 6.78364C50.7235 6.86807 50.6797 6.94688 50.6228 7.01639C50.5666 7.08413 50.4965 7.13963 50.4168 7.17931C50.3314 7.22093 50.237 7.24208 50.1415 7.24098C50.0669 7.24249 49.9928 7.22943 49.9236 7.20258C49.8646 7.17969 49.8113 7.14495 49.7671 7.10063C49.723 7.0563 49.689 7.0034 49.6673 6.9454C49.6445 6.88505 49.6331 6.82117 49.6338 6.75688C49.6338 6.66508 49.6492 6.5739 49.6793 6.4869C49.7089 6.40245 49.7535 6.32368 49.811 6.25415C49.8678 6.18595 49.9383 6.12972 50.0181 6.08891C50.1028 6.04622 50.197 6.02463 50.2923 6.02606C50.3661 6.02489 50.4393 6.03795 50.5078 6.06447C50.5677 6.0873 50.6216 6.12266 50.6659 6.16804C50.7086 6.21233 50.7416 6.26459 50.7628 6.32165C50.7857 6.3824 50.797 6.44666 50.7964 6.51133C50.7955 6.60078 50.7802 6.68954 50.7509 6.77433L50.7521 6.78364ZM43.0656 5.14746C43.2076 5.0985 43.3379 5.0221 43.4487 4.92286C43.5576 4.82509 43.6441 4.70614 43.7026 4.57375C43.7654 4.42629 43.7964 4.26785 43.7936 4.10826C43.7973 3.97959 43.7681 3.85203 43.7085 3.73703C43.6565 3.63824 43.5825 3.55197 43.4918 3.48451C43.4019 3.41877 43.2999 3.3702 43.1913 3.34137C43.0825 3.31234 42.9702 3.29747 42.8573 3.29715H42.1222L41.7738 5.22659H42.5831C42.7477 5.22536 42.9107 5.1954 43.0644 5.13815L43.0656 5.14746ZM42.5101 3.68234H42.7699C42.8514 3.68085 42.9326 3.69386 43.0093 3.72074C43.0729 3.74321 43.1309 3.77851 43.1794 3.82431C43.224 3.86758 43.2579 3.92009 43.2787 3.97792C43.3004 4.03773 43.3113 4.10071 43.3111 4.16412C43.3107 4.24895 43.2958 4.33314 43.2668 4.41315C43.2365 4.49508 43.1889 4.56993 43.127 4.63287C43.0652 4.69581 42.9904 4.74544 42.9076 4.77856C42.81 4.81734 42.7053 4.83635 42.5999 4.83442H42.3006L42.5101 3.68234ZM43.8474 5.21845H44.3156L44.6652 3.29017H44.197L43.8474 5.21845ZM45.3943 3.85806C45.4544 3.7905 45.5276 3.73513 45.6098 3.69514C45.6941 3.6554 45.7867 3.63509 45.8804 3.63579C45.9634 3.63366 46.0457 3.65165 46.1198 3.68816C46.1805 3.72062 46.2329 3.76597 46.2731 3.82082L46.6119 3.52291C46.5343 3.42539 46.4296 3.35149 46.3102 3.30995C46.1735 3.26057 46.0286 3.23611 45.8828 3.2378C45.7259 3.23686 45.5705 3.26738 45.4263 3.32745C45.2821 3.38752 45.1522 3.47585 45.0447 3.58692C44.9382 3.6968 44.8544 3.82561 44.7981 3.96629C44.7391 4.11475 44.7095 4.27266 44.7107 4.43177C44.7087 4.55145 44.7319 4.67025 44.7789 4.78089C44.8228 4.88142 44.8886 4.97153 44.9717 5.04505C45.0578 5.1207 45.1594 5.17781 45.2698 5.21263C45.3948 5.25299 45.526 5.27266 45.6577 5.27081C45.7897 5.2714 45.9212 5.25576 46.0492 5.22426C46.1672 5.19688 46.2813 5.15586 46.3892 5.10207L46.5712 4.08266H45.7631L45.6924 4.45505H46.0791L46.0157 4.81813C45.9736 4.83798 45.9289 4.85208 45.8828 4.86002C45.8313 4.86836 45.7793 4.87341 45.7271 4.87515C45.6504 4.87628 45.5741 4.86365 45.502 4.83791C45.4399 4.81544 45.3835 4.7801 45.3368 4.73434C45.2922 4.68954 45.2579 4.63597 45.2363 4.57724C45.2134 4.51368 45.202 4.44674 45.2027 4.37941C45.2021 4.28213 45.2195 4.18554 45.2542 4.0943C45.2867 4.00809 45.3345 3.92812 45.3955 3.85806H45.3943ZM46.6718 5.21845H47.1399L47.4895 3.29017H47.0214L46.6718 5.21845ZM47.8906 5.21845H48.3563L48.6365 3.68118H49.1801L49.2507 3.29133H47.6859L47.614 3.68001H48.1684L47.8906 5.21845ZM50.1091 4.83442L50.1774 5.21845H50.6719L50.2959 3.289H49.8338L48.5706 5.21728H49.1034L49.3429 4.83325L50.1091 4.83442ZM49.9583 3.78707L50.0624 4.47018H49.5428L49.9583 3.78707ZM51.3854 4.82395L51.6644 3.29017H51.1963L50.8466 5.21845H52.0918L52.1636 4.82395H51.3854ZM43.2739 2.07525H44.0163L44.0869 1.70286H43.3446L43.42 1.29207H44.2066L44.2772 0.90455H43.0297L42.6801 2.83283H43.1398L43.2739 2.07525ZM44.2653 2.28006C44.2637 2.36646 44.2825 2.45206 44.3203 2.53026C44.3565 2.60461 44.4103 2.6696 44.4772 2.71995C44.5514 2.77301 44.635 2.81245 44.7238 2.83632C44.8289 2.86548 44.9378 2.87959 45.0471 2.87821C45.1691 2.87989 45.2906 2.86139 45.4063 2.82352C45.5059 2.7904 45.5978 2.7386 45.6769 2.67107C45.7534 2.604 45.8157 2.52294 45.86 2.43251C45.9085 2.33367 45.9423 2.22867 45.9606 2.12063L46.1797 0.899896H45.72L45.5044 2.07408C45.4946 2.12376 45.4815 2.17275 45.4649 2.22071C45.4481 2.26799 45.423 2.31209 45.3907 2.35105C45.3567 2.39161 45.3137 2.42423 45.265 2.44647C45.2037 2.4731 45.137 2.48584 45.0698 2.48371C45.0172 2.4849 44.9649 2.47661 44.9154 2.45927C44.8763 2.44458 44.8411 2.42151 44.8124 2.39178C44.7863 2.36401 44.7667 2.33106 44.755 2.29519C44.7426 2.25757 44.7366 2.21829 44.737 2.17882C44.737 2.16253 44.737 2.14391 44.737 2.12412C44.7369 2.1049 44.7393 2.08573 44.7442 2.0671L44.9561 0.903387H44.494L44.276 2.11249C44.276 2.14042 44.2689 2.16835 44.2653 2.19744C44.2617 2.22653 44.2665 2.2533 44.2665 2.28472L44.2653 2.28006ZM47.4009 2.83283L47.474 2.43716H46.6945L46.9747 0.903387H46.5066L46.157 2.83166L47.4009 2.83283ZM48.9454 2.43716H48.166L48.4461 0.903387H47.978L47.6284 2.83283H48.8759L48.9454 2.43716Z" fill="black"/>
</g>
</svg>
