<svg width="17" height="14" viewBox="0 0 17 14" fill="none" xmlns="http://www.w3.org/2000/svg">
<path d="M1.96875 1.00586L5.70117 3.90039L8.46875 1.4375H9.6875V6.99805L11.3633 8.31836L11.2109 8.11523C11.5156 7.88672 11.7188 7.53125 11.7188 7.125C11.7188 6.74414 11.5156 6.38867 11.2109 6.16016L11.9473 5.19531C12.5312 5.62695 12.9375 6.33789 12.9375 7.125C12.9375 7.83594 12.6328 8.4707 12.1504 8.92773L13.1152 9.66406C13.75 9.00391 14.1562 8.11523 14.1562 7.125C14.1562 5.93164 13.5723 4.89062 12.6836 4.20508L13.4199 3.24023C14.5879 4.12891 15.375 5.55078 15.375 7.125C15.375 8.39453 14.8926 9.5625 14.0801 10.4258L16.4922 12.3047L16.9746 12.6602L16.2383 13.625L15.7559 13.2695L1.23242 1.9707L0.75 1.58984L1.48633 0.650391L1.96875 1.00586ZM9.6875 10.1211V12.8125H8.46875L4.8125 9.5625H1.5625V4.6875H2.80664L9.6875 10.1211Z" fill="white"/>
</svg>
