<svg width="14" height="12" viewBox="0 0 14 12" fill="none" xmlns="http://www.w3.org/2000/svg">
<path d="M0.1875 3.6875H3.4375L7.09375 0.4375H8.3125V11.8125H7.09375L3.4375 8.5625H0.1875V3.6875ZM10.5723 8.08008L9.83594 7.11523C10.1406 6.88672 10.3438 6.53125 10.3438 6.125C10.3438 5.74414 10.1406 5.38867 9.83594 5.16016L10.5723 4.19531C11.1562 4.62695 11.5625 5.33789 11.5625 6.125C11.5625 6.9375 11.1562 7.64844 10.5723 8.08008ZM12.0449 10.0352L11.3086 9.07031C12.1973 8.38477 12.7812 7.34375 12.7812 6.125C12.7812 4.93164 12.1973 3.89062 11.3086 3.20508L12.0449 2.24023C13.2129 3.12891 14 4.55078 14 6.125C14 7.72461 13.2129 9.14648 12.0449 10.0352Z" fill="white"/>
</svg>
